<svg xmlns="http://www.w3.org/2000/svg" xmlns:xlink="http://www.w3.org/1999/xlink" width="500" zoomAndPan="magnify" viewBox="0 0 375 374.999991" height="500" preserveAspectRatio="xMidYMid meet" version="1.0"><defs><g/><clipPath id="64782c9b62"><path d="M 0.589844 1.5 L 308.519531 1.5 L 308.519531 309.429688 L 0.589844 309.429688 Z M 0.589844 1.5 " clip-rule="nonzero"/></clipPath><clipPath id="f5870e5a61"><path d="M 39 38.609375 L 274 38.609375 L 274 188 L 39 188 Z M 39 38.609375 " clip-rule="nonzero"/></clipPath><clipPath id="a1a8ae766e"><rect x="0" width="309" y="0" height="310"/></clipPath></defs><g transform="matrix(1, 0, 0, 1, 33, 36)"><g clip-path="url(#a1a8ae766e)"><g clip-path="url(#64782c9b62)"><path fill="#fad074" d="M 308.421875 279.242188 C 300.75 279.242188 294.539062 273.023438 294.539062 265.359375 C 294.539062 257.691406 300.757812 251.476562 308.421875 251.476562 L 308.421875 235.269531 C 300.75 235.269531 294.539062 229.050781 294.539062 221.390625 C 294.539062 213.71875 300.757812 207.507812 308.421875 207.507812 L 308.421875 191.292969 C 300.75 191.292969 294.539062 185.082031 294.539062 177.417969 C 294.539062 169.738281 300.757812 163.535156 308.421875 163.535156 L 308.421875 147.324219 C 300.75 147.324219 294.539062 141.105469 294.539062 133.441406 C 294.539062 125.773438 300.757812 119.558594 308.421875 119.558594 L 308.421875 103.355469 C 300.75 103.355469 294.539062 97.132812 294.539062 89.472656 C 294.539062 81.800781 300.757812 75.589844 308.421875 75.589844 L 308.421875 59.359375 C 300.75 59.359375 294.539062 53.144531 294.539062 45.476562 C 294.539062 37.808594 300.757812 31.59375 308.421875 31.59375 L 308.421875 15.386719 C 307.976562 15.386719 307.515625 15.371094 307.050781 15.3125 C 306.605469 15.269531 306.152344 15.210938 305.707031 15.109375 C 304.820312 14.9375 303.949219 14.671875 303.113281 14.316406 C 302.269531 13.976562 301.464844 13.546875 300.722656 13.046875 C 300.335938 12.792969 299.972656 12.527344 299.617188 12.234375 C 299.265625 11.945312 298.925781 11.632812 298.601562 11.320312 C 298.28125 10.996094 297.96875 10.65625 297.683594 10.304688 C 297.402344 9.949219 297.128906 9.585938 296.875 9.210938 C 296.371094 8.457031 295.945312 7.652344 295.605469 6.808594 C 295.25 5.972656 294.984375 5.097656 294.804688 4.214844 C 294.71875 3.765625 294.65625 3.316406 294.601562 2.867188 C 294.558594 2.410156 294.539062 1.953125 294.539062 1.5 L 278.332031 1.5 C 278.332031 9.167969 272.113281 15.382812 264.449219 15.382812 C 256.78125 15.382812 250.566406 9.167969 250.566406 1.5 L 234.363281 1.5 C 234.363281 9.167969 228.144531 15.382812 220.480469 15.382812 C 212.816406 15.382812 206.585938 9.167969 206.585938 1.5 L 190.378906 1.5 C 190.378906 9.167969 184.160156 15.382812 176.496094 15.382812 C 168.816406 15.382812 162.613281 9.167969 162.613281 1.5 L 146.402344 1.5 C 146.402344 9.167969 140.191406 15.382812 132.527344 15.382812 C 124.84375 15.382812 118.632812 9.167969 118.632812 1.5 L 102.425781 1.5 C 102.425781 9.167969 96.214844 15.382812 88.542969 15.382812 C 80.875 15.382812 74.660156 9.167969 74.660156 1.5 L 58.449219 1.5 C 58.449219 9.167969 52.238281 15.382812 44.566406 15.382812 C 36.898438 15.382812 30.679688 9.167969 30.679688 1.5 L 14.480469 1.5 C 14.480469 1.945312 14.460938 2.410156 14.417969 2.867188 C 14.363281 3.316406 14.300781 3.765625 14.214844 4.214844 C 14.035156 5.097656 13.765625 5.972656 13.414062 6.808594 C 13.074219 7.652344 12.644531 8.457031 12.144531 9.210938 C 11.890625 9.585938 11.617188 9.949219 11.332031 10.304688 C 11.046875 10.65625 10.730469 10.996094 10.417969 11.320312 C 10.09375 11.640625 9.753906 11.949219 9.398438 12.234375 C 9.046875 12.527344 8.679688 12.792969 8.296875 13.046875 C 7.546875 13.546875 6.75 13.976562 5.90625 14.316406 C 5.078125 14.671875 4.195312 14.9375 3.3125 15.109375 C 2.863281 15.203125 2.414062 15.269531 1.964844 15.3125 C 1.5 15.363281 1.042969 15.386719 0.589844 15.386719 L 0.589844 31.59375 C 8.261719 31.59375 14.472656 37.8125 14.472656 45.476562 C 14.480469 53.144531 8.261719 59.359375 0.589844 59.359375 L 0.589844 75.566406 C 8.261719 75.566406 14.472656 81.777344 14.472656 89.445312 C 14.472656 97.117188 8.253906 103.328125 0.589844 103.328125 L 0.589844 119.535156 C 8.261719 119.535156 14.472656 125.75 14.472656 133.417969 C 14.472656 141.085938 8.253906 147.300781 0.589844 147.300781 L 0.589844 163.511719 C 8.261719 163.511719 14.472656 169.726562 14.472656 177.394531 C 14.472656 185.0625 8.253906 191.277344 0.589844 191.277344 L 0.589844 207.480469 C 8.261719 207.480469 14.472656 213.695312 14.472656 221.363281 C 14.472656 229.035156 8.253906 235.246094 0.589844 235.246094 L 0.589844 251.453125 C 8.261719 251.453125 14.472656 257.664062 14.472656 265.335938 C 14.472656 273.003906 8.253906 279.21875 0.589844 279.21875 L 0.589844 295.429688 C 1.050781 295.429688 1.5 295.441406 1.960938 295.484375 C 2.40625 295.539062 2.859375 295.601562 3.304688 295.6875 C 4.191406 295.867188 5.0625 296.136719 5.898438 296.488281 C 6.742188 296.828125 7.546875 297.257812 8.304688 297.757812 C 8.675781 298.011719 9.039062 298.285156 9.394531 298.570312 C 9.746094 298.855469 10.085938 299.164062 10.410156 299.484375 C 10.730469 299.808594 11.042969 300.148438 11.328125 300.503906 C 11.613281 300.855469 11.882812 301.222656 12.136719 301.59375 C 12.640625 302.347656 13.066406 303.152344 13.410156 303.996094 C 13.761719 304.824219 14.027344 305.707031 14.199219 306.589844 C 14.300781 307.039062 14.363281 307.488281 14.40625 307.9375 C 14.460938 308.394531 14.480469 308.851562 14.480469 309.304688 L 30.683594 309.304688 C 30.683594 301.636719 36.898438 295.421875 44.566406 295.421875 C 52.238281 295.421875 58.449219 301.640625 58.449219 309.304688 L 74.65625 309.304688 C 74.65625 301.636719 80.875 295.421875 88.539062 295.421875 C 96.207031 295.421875 102.421875 301.640625 102.421875 309.304688 L 118.625 309.304688 C 118.625 301.636719 124.84375 295.421875 132.519531 295.421875 C 140.175781 295.421875 146.398438 301.640625 146.398438 309.304688 L 162.609375 309.304688 C 162.609375 301.636719 168.816406 295.421875 176.492188 295.421875 C 184.160156 295.421875 190.375 301.640625 190.375 309.304688 L 206.578125 309.304688 C 206.578125 301.636719 212.796875 295.421875 220.460938 295.421875 C 228.125 295.421875 234.34375 301.640625 234.34375 309.304688 L 250.550781 309.304688 C 250.550781 301.636719 256.769531 295.421875 264.433594 295.421875 C 272.101562 295.421875 278.316406 301.640625 278.316406 309.304688 L 294.519531 309.304688 C 294.519531 308.859375 294.542969 308.394531 294.59375 307.9375 C 294.636719 307.488281 294.699219 307.039062 294.796875 306.589844 C 294.972656 305.707031 295.238281 304.824219 295.589844 303.996094 C 295.933594 303.152344 296.359375 302.347656 296.863281 301.59375 C 297.117188 301.222656 297.386719 300.855469 297.671875 300.503906 C 297.957031 300.148438 298.269531 299.808594 298.589844 299.484375 C 301.171875 296.902344 304.753906 295.433594 308.410156 295.421875 Z M 308.421875 279.242188 " fill-opacity="1" fill-rule="nonzero"/></g><g clip-path="url(#f5870e5a61)"><path fill="#e83100" d="M 266.898438 127.878906 L 172.191406 131.71875 L 172.261719 133.390625 L 172.210938 131.71875 C 164.15625 131.71875 163.554688 128.0625 158.007812 123.988281 C 151.574219 119.261719 140.628906 113.84375 127.355469 113.84375 C 113.773438 113.84375 89.445312 119.261719 89.445312 136.699219 C 89.445312 153.808594 113.082031 159.554688 127.355469 159.554688 C 139.425781 159.554688 155.425781 153.769531 162.917969 145.042969 C 165.171875 142.425781 169.519531 141.679688 172.210938 141.679688 C 172.210938 141.679688 266.171875 144.898438 271.28125 145.027344 L 271.316406 143.335938 L 269.628906 143.5 L 270.371094 159.808594 C 270.371094 166.296875 269.992188 173.679688 268.71875 179.84375 C 268.261719 182.027344 271.574219 182.71875 272.027344 180.535156 C 274.464844 168.589844 273.828125 151.71875 272.992188 143.152344 C 272.917969 142.316406 272.207031 141.664062 271.355469 141.644531 L 176.371094 138.445312 C 171.136719 138.261719 164.628906 137.898438 160.355469 142.84375 C 154.554688 149.554688 140.519531 156.171875 127.355469 156.171875 C 115.789062 156.171875 92.828125 151.679688 92.828125 136.699219 C 92.828125 122.007812 115.046875 117.207031 127.355469 117.226562 C 138.464844 117.226562 153.445312 122.554688 160.355469 130.554688 C 164.628906 135.480469 171.101562 135.136719 176.28125 134.917969 L 269.0625 131.171875 C 270.136719 131.152344 270.917969 130.136719 270.664062 129.0625 C 258.609375 77.226562 212.136719 38.609375 156.644531 38.609375 C 88.316406 38.609375 34.519531 96.878906 39.972656 165.117188 C 40.117188 167.097656 42.335938 166.679688 46.464844 166.84375 L 152.882812 170.789062 C 159.683594 171.042969 162.589844 171.40625 168.628906 166.734375 C 172.171875 163.988281 178.046875 159.570312 182.863281 159.515625 L 182.84375 157.824219 L 182.808594 159.515625 L 183.171875 159.515625 L 235.917969 162.351562 C 238.136719 162.460938 238.316406 159.097656 236.101562 158.972656 L 183.316406 156.152344 C 173.082031 155.699219 165.664062 167.972656 157.644531 167.609375 L 43.226562 163.351562 C 38.828125 97.589844 90.898438 41.988281 156.644531 41.988281 C 209.84375 41.972656 254.5 78.535156 266.898438 127.878906 Z M 77.535156 54.351562 L 73.898438 54.351562 C 73.898438 52.117188 74.335938 49.824219 72.898438 49.824219 C 71.480469 49.824219 71.917969 52.117188 71.917969 54.351562 C 69.828125 54.351562 67.644531 53.917969 67.644531 55.335938 C 67.644531 56.753906 69.828125 56.335938 71.917969 56.335938 C 71.917969 58.554688 71.480469 60.863281 72.898438 60.863281 C 74.335938 60.863281 73.898438 58.554688 73.898438 56.335938 C 76.191406 56.335938 78.535156 56.773438 78.535156 55.335938 C 78.535156 54.789062 78.082031 54.351562 77.535156 54.351562 Z M 271.316406 91.207031 L 267.683594 91.207031 C 267.683594 88.988281 268.117188 86.679688 266.679688 86.679688 C 265.246094 86.679688 265.679688 88.988281 265.679688 91.207031 C 263.589844 91.207031 261.410156 90.789062 261.410156 92.207031 C 261.410156 93.609375 263.589844 93.191406 265.679688 93.191406 C 265.679688 95.425781 265.246094 97.71875 266.679688 97.71875 C 268.117188 97.71875 267.683594 95.425781 267.683594 93.191406 C 269.953125 93.191406 272.300781 93.644531 272.300781 92.207031 C 272.300781 91.664062 271.863281 91.207031 271.316406 91.207031 Z M 158.683594 134.5 C 152.699219 127.117188 139.953125 119.28125 126.246094 119.28125 C 121.554688 119.28125 116.445312 120.097656 111.007812 122.136719 C 108.9375 122.898438 110.101562 126.0625 112.191406 125.296875 C 128.71875 119.152344 145.191406 124.589844 155.574219 136.0625 C 158.171875 138.933594 159.753906 135.824219 158.683594 134.5 Z M 76.992188 153.207031 C 78.046875 109.753906 113.628906 74.84375 157.335938 74.84375 C 184.535156 74.84375 208.554688 88.335938 223.101562 109.007812 C 224.371094 110.808594 227.136719 108.863281 225.863281 107.0625 C 210.71875 85.535156 185.664062 71.460938 157.335938 71.460938 C 111.789062 71.460938 74.71875 107.84375 73.609375 153.136719 C 73.574219 155.351562 76.9375 155.445312 76.992188 153.207031 Z M 227.628906 116.207031 C 229.027344 118.71875 230.28125 121.28125 231.390625 123.933594 C 232.261719 125.972656 235.371094 124.664062 234.5 122.625 C 233.335938 119.863281 232.027344 117.171875 230.589844 114.570312 C 229.5 112.625 226.554688 114.261719 227.628906 116.207031 Z M 181.773438 177.515625 L 235.535156 177.515625 C 237.753906 177.515625 237.753906 174.136719 235.535156 174.136719 L 181.773438 174.136719 C 179.554688 174.136719 179.554688 177.515625 181.773438 177.515625 Z M 181.773438 169.625 L 235.535156 169.625 C 237.753906 169.625 237.753906 166.246094 235.535156 166.246094 L 181.773438 166.246094 C 179.554688 166.246094 179.554688 169.625 181.773438 169.625 Z M 43.191406 180.589844 L 157.644531 176.152344 C 165.644531 175.769531 173.101562 188.042969 183.316406 187.609375 L 236.101562 184.769531 C 238.316406 184.664062 238.136719 181.296875 235.917969 181.40625 L 183.171875 184.242188 L 182.808594 184.242188 L 182.84375 185.933594 L 182.863281 184.242188 C 173.789062 184.117188 166.917969 172.171875 157.425781 172.789062 C 157.136719 172.808594 155.046875 172.898438 151.738281 173.027344 L 46.792969 177.082031 C 43.84375 177.191406 41.371094 176.808594 41.445312 178.972656 C 41.480469 179.898438 42.265625 180.625 43.191406 180.589844 Z M 43.191406 180.589844 " fill-opacity="1" fill-rule="nonzero"/></g><g fill="#2d4628" fill-opacity="1"><g transform="translate(28.678973, 250.494687)"><g/></g></g><g fill="#2d4628" fill-opacity="1"><g transform="translate(49.540933, 250.494687)"><g><path d="M 39.34375 -9.015625 C 39.34375 -4.660156 38.765625 -1.65625 37.609375 0 L 6 0 C 4.46875 0 3.414062 -0.382812 2.84375 -1.15625 C 2.644531 -1.425781 2.546875 -1.726562 2.546875 -2.0625 C 2.546875 -2.789062 2.703125 -3.347656 3.015625 -3.734375 C 3.671875 -3.546875 4.53125 -3.453125 5.59375 -3.453125 C 7.96875 -3.453125 9.15625 -4.910156 9.15625 -7.828125 L 9.15625 -37.578125 C 9.15625 -38.910156 8.59375 -39.8125 7.46875 -40.28125 C 7.144531 -40.4375 6.742188 -40.582031 6.265625 -40.71875 L 4.8125 -41.09375 C 3.882812 -41.320312 3.304688 -41.601562 3.078125 -41.9375 C 2.859375 -42.28125 2.75 -42.625 2.75 -42.96875 C 2.75 -43.707031 2.90625 -44.269531 3.21875 -44.65625 C 3.664062 -44.5 4.617188 -44.421875 6.078125 -44.421875 L 18.71875 -44.421875 C 19.71875 -44.421875 20.515625 -44.257812 21.109375 -43.9375 C 21.710938 -43.625 22.015625 -43.039062 22.015625 -42.1875 C 22.015625 -41.53125 21.875 -41.039062 21.59375 -40.71875 C 20.851562 -40.90625 20.148438 -41 19.484375 -41 C 18.816406 -41 18.296875 -40.925781 17.921875 -40.78125 C 17.546875 -40.632812 17.210938 -40.390625 16.921875 -40.046875 C 16.335938 -39.304688 16.03125 -38.097656 16 -36.421875 L 16 -7.125 C 16.03125 -5.769531 16.425781 -4.863281 17.1875 -4.40625 C 17.820312 -4 18.988281 -3.796875 20.6875 -3.796875 L 22.859375 -3.828125 L 25.359375 -3.859375 C 29.566406 -3.859375 32.316406 -4.796875 33.609375 -6.671875 C 34.242188 -7.597656 34.671875 -8.757812 34.890625 -10.15625 C 35.117188 -11.550781 35.320312 -13.175781 35.5 -15.03125 C 35.800781 -15.226562 36.210938 -15.328125 36.734375 -15.328125 C 37.722656 -15.328125 38.390625 -15.210938 38.734375 -14.984375 C 39.140625 -13.398438 39.34375 -11.410156 39.34375 -9.015625 Z M 39.34375 -9.015625 "/></g></g></g><g fill="#2d4628" fill-opacity="1"><g transform="translate(91.086615, 250.494687)"><g><path d="M 5.59375 -25.78125 C 5.59375 -26.882812 5.507812 -27.769531 5.34375 -28.4375 C 5.175781 -29.101562 4.84375 -29.4375 4.34375 -29.4375 C 3.976562 -29.4375 3.691406 -29.398438 3.484375 -29.328125 L 2.78125 -29.03125 C 2.644531 -28.988281 2.484375 -29.066406 2.296875 -29.265625 C 1.921875 -29.671875 1.734375 -30.039062 1.734375 -30.375 C 1.734375 -30.71875 1.84375 -31.078125 2.0625 -31.453125 C 2.289062 -31.828125 2.628906 -32.253906 3.078125 -32.734375 C 3.535156 -33.222656 4.054688 -33.648438 4.640625 -34.015625 C 5.953125 -34.890625 7.140625 -35.328125 8.203125 -35.328125 C 9.265625 -35.328125 10.015625 -35.140625 10.453125 -34.765625 C 10.898438 -34.398438 11.238281 -33.921875 11.46875 -33.328125 C 11.851562 -32.359375 12.046875 -30.898438 12.046875 -28.953125 L 12.046875 -10.8125 C 12.046875 -7.539062 13.035156 -5.710938 15.015625 -5.328125 C 15.609375 -5.210938 16.316406 -5.15625 17.140625 -5.15625 C 17.960938 -5.15625 18.84375 -5.257812 19.78125 -5.46875 C 20.71875 -5.6875 21.609375 -5.96875 22.453125 -6.3125 C 24.097656 -6.988281 25.546875 -7.847656 26.796875 -8.890625 L 26.796875 -25.78125 C 26.796875 -27.625 26.46875 -28.753906 25.8125 -29.171875 C 25.539062 -29.347656 25.1875 -29.4375 24.75 -29.4375 C 24.300781 -29.4375 23.945312 -29.367188 23.6875 -29.234375 C 23.425781 -29.097656 23.210938 -29 23.046875 -28.9375 C 22.878906 -28.882812 22.738281 -28.890625 22.625 -28.953125 C 22.507812 -29.023438 22.382812 -29.128906 22.25 -29.265625 C 21.957031 -29.597656 21.8125 -29.925781 21.8125 -30.25 C 21.8125 -30.582031 21.929688 -30.9375 22.171875 -31.3125 C 22.421875 -31.6875 22.816406 -32.117188 23.359375 -32.609375 C 23.898438 -33.109375 24.515625 -33.554688 25.203125 -33.953125 C 26.773438 -34.867188 28.34375 -35.328125 29.90625 -35.328125 C 31.800781 -35.328125 32.882812 -33.984375 33.15625 -31.296875 C 33.226562 -30.546875 33.265625 -29.765625 33.265625 -28.953125 L 33.265625 -11.796875 C 33.265625 -8.816406 33.378906 -6.957031 33.609375 -6.21875 C 33.835938 -5.488281 34.117188 -5.015625 34.453125 -4.796875 C 34.785156 -4.578125 35.191406 -4.46875 35.671875 -4.46875 C 36.148438 -4.46875 36.546875 -4.539062 36.859375 -4.6875 L 37.734375 -5.078125 C 37.984375 -5.128906 38.203125 -5.007812 38.390625 -4.71875 C 38.796875 -4.125 38.851562 -3.582031 38.5625 -3.09375 C 38.28125 -2.613281 37.832031 -2.148438 37.21875 -1.703125 C 36.613281 -1.265625 35.929688 -0.878906 35.171875 -0.546875 C 31.835938 0.921875 29.460938 0.890625 28.046875 -0.640625 C 27.316406 -1.429688 26.898438 -2.6875 26.796875 -4.40625 C 23.960938 -2.21875 21.054688 -0.710938 18.078125 0.109375 C 16.992188 0.398438 15.859375 0.546875 14.671875 0.546875 C 13.484375 0.546875 12.320312 0.378906 11.1875 0.046875 C 10.0625 -0.273438 9.085938 -0.800781 8.265625 -1.53125 C 6.484375 -3.101562 5.59375 -5.519531 5.59375 -8.78125 Z M 5.59375 -25.78125 "/></g></g></g><g fill="#2d4628" fill-opacity="1"><g transform="translate(130.778096, 250.494687)"><g><path d="M 9.875 -40.71875 C 9.21875 -40.71875 8.613281 -40.816406 8.0625 -41.015625 C 7.519531 -41.222656 7.046875 -41.519531 6.640625 -41.90625 C 5.785156 -42.707031 5.359375 -43.796875 5.359375 -45.171875 C 5.359375 -46.484375 5.863281 -47.59375 6.875 -48.5 C 7.832031 -49.414062 8.988281 -49.875 10.34375 -49.875 C 11.695312 -49.875 12.78125 -49.46875 13.59375 -48.65625 C 14.40625 -47.84375 14.8125 -46.738281 14.8125 -45.34375 C 14.8125 -44.03125 14.328125 -42.921875 13.359375 -42.015625 C 12.410156 -41.148438 11.25 -40.71875 9.875 -40.71875 Z M 8.109375 0 C 5.140625 0 3.65625 -0.675781 3.65625 -2.03125 C 3.65625 -2.726562 3.804688 -3.269531 4.109375 -3.65625 C 4.578125 -3.5 5.003906 -3.421875 5.390625 -3.421875 C 7.179688 -3.421875 8.0625 -4.5625 8.03125 -6.84375 L 8.03125 -26.25 C 8.03125 -27.601562 7.835938 -28.546875 7.453125 -29.078125 C 7.078125 -29.609375 6.410156 -29.875 5.453125 -29.875 C 4.734375 -29.875 4.082031 -29.785156 3.5 -29.609375 C 3.15625 -29.578125 2.90625 -29.847656 2.75 -30.421875 C 2.613281 -30.941406 2.691406 -31.398438 2.984375 -31.796875 C 3.273438 -32.191406 3.722656 -32.609375 4.328125 -33.046875 C 4.941406 -33.484375 5.613281 -33.863281 6.34375 -34.1875 C 7.925781 -34.945312 9.25 -35.328125 10.3125 -35.328125 C 11.375 -35.328125 12.160156 -35.171875 12.671875 -34.859375 C 13.191406 -34.546875 13.582031 -34.128906 13.84375 -33.609375 C 14.269531 -32.765625 14.484375 -31.394531 14.484375 -29.5 L 14.484375 -6.34375 C 14.546875 -4.820312 15.097656 -3.894531 16.140625 -3.5625 C 16.429688 -3.46875 16.785156 -3.378906 17.203125 -3.296875 C 17.628906 -3.222656 18.007812 -3.132812 18.34375 -3.03125 C 18.6875 -2.925781 18.957031 -2.804688 19.15625 -2.671875 C 19.476562 -2.421875 19.640625 -2.015625 19.640625 -1.453125 C 19.640625 -0.753906 19.5 -0.222656 19.21875 0.140625 C 18.8125 0.046875 18.191406 0 17.359375 0 Z M 8.109375 0 "/></g></g></g><g fill="#2d4628" fill-opacity="1"><g transform="translate(151.550937, 250.494687)"><g><path d="M 14.28125 -11.5625 C 13.550781 -10.820312 13.1875 -10.101562 13.1875 -9.40625 C 13.1875 -8.71875 13.390625 -8.191406 13.796875 -7.828125 C 14.203125 -7.472656 14.734375 -7.203125 15.390625 -7.015625 C 16.390625 -6.742188 17.5 -6.609375 18.71875 -6.609375 L 21.203125 -6.609375 C 27.503906 -6.609375 31.648438 -5.101562 33.640625 -2.09375 C 34.378906 -0.96875 34.75 0.398438 34.75 2.015625 C 34.75 3.628906 34.476562 5.039062 33.9375 6.25 C 33.394531 7.46875 32.664062 8.546875 31.75 9.484375 C 30.84375 10.421875 29.789062 11.226562 28.59375 11.90625 C 27.394531 12.582031 26.128906 13.132812 24.796875 13.5625 C 22.191406 14.425781 19.757812 14.859375 17.5 14.859375 C 15.238281 14.859375 13.265625 14.679688 11.578125 14.328125 C 9.890625 13.972656 8.382812 13.414062 7.0625 12.65625 C 4.226562 11.019531 2.8125 8.664062 2.8125 5.59375 C 2.8125 2.988281 4.113281 0.648438 6.71875 -1.421875 C 7.507812 -2.035156 8.351562 -2.585938 9.25 -3.078125 C 8.195312 -3.941406 7.671875 -5.109375 7.671875 -6.578125 C 7.671875 -8.878906 8.8125 -10.8125 11.09375 -12.375 C 7.75 -13.644531 5.554688 -15.925781 4.515625 -19.21875 C 4.191406 -20.289062 4.03125 -21.492188 4.03125 -22.828125 C 4.03125 -24.160156 4.238281 -25.414062 4.65625 -26.59375 C 5.070312 -27.78125 5.640625 -28.835938 6.359375 -29.765625 C 7.085938 -30.691406 7.929688 -31.5 8.890625 -32.1875 C 9.859375 -32.882812 10.894531 -33.46875 12 -33.9375 C 14.15625 -34.863281 16.425781 -35.328125 18.8125 -35.328125 C 22.726562 -35.328125 25.851562 -34.335938 28.1875 -32.359375 C 28.445312 -33.328125 28.578125 -34.320312 28.578125 -35.34375 C 28.578125 -36.375 28.351562 -37.207031 27.90625 -37.84375 C 28.65625 -38.726562 29.773438 -39.171875 31.265625 -39.171875 C 32.117188 -39.171875 32.796875 -38.941406 33.296875 -38.484375 C 34.265625 -37.648438 34.75 -36.820312 34.75 -36 C 34.75 -35.175781 34.617188 -34.460938 34.359375 -33.859375 C 34.109375 -33.253906 33.78125 -32.679688 33.375 -32.140625 C 32.664062 -31.128906 31.738281 -30.21875 30.59375 -29.40625 C 31.375 -27.957031 31.765625 -26.28125 31.765625 -24.375 C 31.765625 -22.476562 31.34375 -20.710938 30.5 -19.078125 C 29.65625 -17.441406 28.53125 -16.054688 27.125 -14.921875 C 24.226562 -12.585938 20.65625 -11.421875 16.40625 -11.421875 C 15.820312 -11.421875 15.113281 -11.46875 14.28125 -11.5625 Z M 12.875 -17.75 C 13.5625 -17.0625 14.347656 -16.550781 15.234375 -16.21875 C 16.128906 -15.894531 17.082031 -15.734375 18.09375 -15.734375 C 19.101562 -15.734375 20.054688 -15.878906 20.953125 -16.171875 C 21.859375 -16.460938 22.640625 -16.882812 23.296875 -17.4375 C 24.703125 -18.632812 25.40625 -20.335938 25.40625 -22.546875 C 25.40625 -24.972656 24.78125 -27 23.53125 -28.625 C 22.101562 -30.425781 20.09375 -31.328125 17.5 -31.328125 C 14.238281 -31.328125 12.125 -29.992188 11.15625 -27.328125 C 10.820312 -26.421875 10.65625 -25.300781 10.65625 -23.96875 C 10.65625 -22.632812 10.851562 -21.4375 11.25 -20.375 C 11.644531 -19.3125 12.1875 -18.4375 12.875 -17.75 Z M 12.890625 -1.359375 C 10.359375 0.359375 9.09375 2.304688 9.09375 4.484375 C 9.09375 6.378906 10.195312 7.820312 12.40625 8.8125 C 14.15625 9.625 16.316406 10.03125 18.890625 10.03125 C 21.234375 10.03125 23.398438 9.640625 25.390625 8.859375 C 27.992188 7.835938 29.296875 6.171875 29.296875 3.859375 C 29.296875 0.742188 26.773438 -0.8125 21.734375 -0.8125 L 19.15625 -0.78125 C 16.53125 -0.78125 14.441406 -0.972656 12.890625 -1.359375 Z M 12.890625 -1.359375 "/></g></g></g><g fill="#2d4628" fill-opacity="1"><g transform="translate(187.73682, 250.494687)"><g><path d="M 9.875 -40.71875 C 9.21875 -40.71875 8.613281 -40.816406 8.0625 -41.015625 C 7.519531 -41.222656 7.046875 -41.519531 6.640625 -41.90625 C 5.785156 -42.707031 5.359375 -43.796875 5.359375 -45.171875 C 5.359375 -46.484375 5.863281 -47.59375 6.875 -48.5 C 7.832031 -49.414062 8.988281 -49.875 10.34375 -49.875 C 11.695312 -49.875 12.78125 -49.46875 13.59375 -48.65625 C 14.40625 -47.84375 14.8125 -46.738281 14.8125 -45.34375 C 14.8125 -44.03125 14.328125 -42.921875 13.359375 -42.015625 C 12.410156 -41.148438 11.25 -40.71875 9.875 -40.71875 Z M 8.109375 0 C 5.140625 0 3.65625 -0.675781 3.65625 -2.03125 C 3.65625 -2.726562 3.804688 -3.269531 4.109375 -3.65625 C 4.578125 -3.5 5.003906 -3.421875 5.390625 -3.421875 C 7.179688 -3.421875 8.0625 -4.5625 8.03125 -6.84375 L 8.03125 -26.25 C 8.03125 -27.601562 7.835938 -28.546875 7.453125 -29.078125 C 7.078125 -29.609375 6.410156 -29.875 5.453125 -29.875 C 4.734375 -29.875 4.082031 -29.785156 3.5 -29.609375 C 3.15625 -29.578125 2.90625 -29.847656 2.75 -30.421875 C 2.613281 -30.941406 2.691406 -31.398438 2.984375 -31.796875 C 3.273438 -32.191406 3.722656 -32.609375 4.328125 -33.046875 C 4.941406 -33.484375 5.613281 -33.863281 6.34375 -34.1875 C 7.925781 -34.945312 9.25 -35.328125 10.3125 -35.328125 C 11.375 -35.328125 12.160156 -35.171875 12.671875 -34.859375 C 13.191406 -34.546875 13.582031 -34.128906 13.84375 -33.609375 C 14.269531 -32.765625 14.484375 -31.394531 14.484375 -29.5 L 14.484375 -6.34375 C 14.546875 -4.820312 15.097656 -3.894531 16.140625 -3.5625 C 16.429688 -3.46875 16.785156 -3.378906 17.203125 -3.296875 C 17.628906 -3.222656 18.007812 -3.132812 18.34375 -3.03125 C 18.6875 -2.925781 18.957031 -2.804688 19.15625 -2.671875 C 19.476562 -2.421875 19.640625 -2.015625 19.640625 -1.453125 C 19.640625 -0.753906 19.5 -0.222656 19.21875 0.140625 C 18.8125 0.046875 18.191406 0 17.359375 0 Z M 8.109375 0 "/></g></g></g><g fill="#2d4628" fill-opacity="1"><g transform="translate(208.50967, 250.494687)"><g><path d="M 9.5 -49.984375 C 10.21875 -50.046875 11.054688 -50.078125 12.015625 -50.078125 C 12.984375 -50.078125 13.46875 -49.921875 13.46875 -49.609375 C 13.375 -48.390625 13.269531 -47.179688 13.15625 -45.984375 C 12.539062 -39.648438 12.179688 -35.882812 12.078125 -34.6875 L 11.765625 -31.171875 C 11.765625 -30.765625 10.804688 -30.5625 8.890625 -30.5625 C 7.578125 -30.5625 6.90625 -30.796875 6.875 -31.265625 C 6.8125 -31.898438 6.734375 -32.703125 6.640625 -33.671875 L 5.96875 -40.15625 C 5.832031 -41.320312 5.71875 -42.441406 5.625 -43.515625 L 5.359375 -46.5625 C 5.285156 -47.488281 5.238281 -48.253906 5.21875 -48.859375 C 5.21875 -49.378906 6.644531 -49.753906 9.5 -49.984375 Z M 9.5 -49.984375 "/></g></g></g><g fill="#2d4628" fill-opacity="1"><g transform="translate(227.167564, 250.494687)"><g><path d="M 23 -25.03125 C 23 -28.007812 21.765625 -29.984375 19.296875 -30.953125 C 18.503906 -31.253906 17.648438 -31.40625 16.734375 -31.40625 C 15.816406 -31.40625 14.96875 -31.328125 14.1875 -31.171875 C 13.40625 -31.023438 12.710938 -30.785156 12.109375 -30.453125 C 10.753906 -29.722656 10.078125 -28.671875 10.078125 -27.296875 C 10.078125 -25.984375 10.640625 -24.84375 11.765625 -23.875 C 13.003906 -22.851562 15.300781 -21.59375 18.65625 -20.09375 C 22.019531 -18.59375 24.613281 -16.957031 26.4375 -15.1875 C 28.257812 -13.425781 29.171875 -11.394531 29.171875 -9.09375 C 29.171875 -6.507812 28.109375 -4.328125 25.984375 -2.546875 C 23.492188 -0.484375 20.046875 0.546875 15.640625 0.546875 C 10.253906 0.546875 6.53125 -0.597656 4.46875 -2.890625 C 3.75 -3.703125 3.390625 -4.738281 3.390625 -6 C 3.390625 -9.03125 4.132812 -10.796875 5.625 -11.296875 C 5.988281 -11.410156 6.335938 -11.46875 6.671875 -11.46875 C 7.578125 -11.46875 8.066406 -11.191406 8.140625 -10.640625 C 8.566406 -5.804688 11.269531 -3.390625 16.25 -3.390625 C 19.25 -3.390625 21.25 -4.226562 22.25 -5.90625 C 22.582031 -6.445312 22.75 -7.101562 22.75 -7.875 C 22.75 -8.65625 22.5 -9.363281 22 -10 C 21.507812 -10.632812 20.828125 -11.226562 19.953125 -11.78125 C 19.085938 -12.332031 18.054688 -12.867188 16.859375 -13.390625 L 13.015625 -15.125 C 7.097656 -17.832031 4.140625 -21.425781 4.140625 -25.90625 C 4.140625 -28.800781 5.425781 -31.117188 8 -32.859375 C 10.4375 -34.503906 13.578125 -35.328125 17.421875 -35.328125 C 22.628906 -35.328125 25.875 -34.195312 27.15625 -31.9375 C 27.476562 -31.351562 27.640625 -30.710938 27.640625 -30.015625 C 27.640625 -29.316406 27.597656 -28.691406 27.515625 -28.140625 C 27.441406 -27.597656 27.347656 -27.101562 27.234375 -26.65625 C 27.046875 -25.8125 26.828125 -25.210938 26.578125 -24.859375 C 26.066406 -24.492188 25.34375 -24.3125 24.40625 -24.3125 C 23.46875 -24.3125 23 -24.550781 23 -25.03125 Z M 23 -25.03125 "/></g></g></g><g fill="#2d4628" fill-opacity="1"><g transform="translate(259.447954, 250.494687)"><g/></g></g></g></g></svg>